<?xml version="1.0"?>
<svg xmlns="http://www.w3.org/2000/svg" width="512" height="512" viewBox="0 0 128 128"><g><circle cx="64" cy="64" r="36" fill="#1daef1"/><path d="M35.246,85.659a35.991,35.991,0,0,0,50.02,7.384c-13.434,2.375-21.1-8.238-22.281-19.739s-10.276-12.222-13.7-11.588c-6.163,1.142-9.642,6.682-8.458,14.971C42.006,84.95,35.287,85.654,35.246,85.659Z" fill="#4ce797"/><path d="M64,28a36.077,36.077,0,0,0-8.332.98c-.036.093-2.4,6.47,10.193,11.676C78.548,45.9,82.608,54.7,81.931,65.184S94.144,78.237,99.2,71.547A36,36,0,0,0,64,28Z" fill="#4ce797"/><path d="M57.913,108.448a1.876,1.876,0,0,1-.247-.017,44.617,44.617,0,0,1-12.258-3.577,1.75,1.75,0,1,1,1.451-3.185,41.105,41.105,0,0,0,11.3,3.3,1.75,1.75,0,0,1-.243,3.482Zm12.264-.013a1.75,1.75,0,0,1-.246-3.483,41.106,41.106,0,0,0,11.288-3.318,1.749,1.749,0,0,1,1.457,3.181,44.536,44.536,0,0,1-12.249,3.6A1.773,1.773,0,0,1,70.177,108.435ZM35.806,98.384a1.741,1.741,0,0,1-1.143-.426,45.045,45.045,0,0,1-8.378-9.632,1.75,1.75,0,1,1,2.939-1.9,41.562,41.562,0,0,0,7.728,8.884,1.75,1.75,0,0,1-1.146,3.074Zm56.454-.058a1.75,1.75,0,0,1-1.149-3.071,41.513,41.513,0,0,0,7.711-8.9,1.751,1.751,0,0,1,2.944,1.895,45,45,0,0,1-8.36,9.647A1.738,1.738,0,0,1,92.26,98.326ZM22.632,77.979a1.752,1.752,0,0,1-1.677-1.255,44.938,44.938,0,0,1-1.83-12.632,1.75,1.75,0,0,1,1.747-1.754h0a1.75,1.75,0,0,1,1.75,1.746,41.423,41.423,0,0,0,1.687,11.649,1.751,1.751,0,0,1-1.68,2.246Zm82.761-.084a1.751,1.751,0,0,1-1.681-2.243A41.454,41.454,0,0,0,105.375,64v-.175a1.75,1.75,0,1,1,3.5,0V64a44.919,44.919,0,0,1-1.8,12.637A1.752,1.752,0,0,1,105.393,77.9ZM22.584,53.689A1.748,1.748,0,0,1,20.9,51.451a44.671,44.671,0,0,1,5.283-11.626,1.75,1.75,0,1,1,2.947,1.887,41.141,41.141,0,0,0-4.869,10.716A1.751,1.751,0,0,1,22.584,53.689Zm82.755-.251a1.752,1.752,0,0,1-1.677-1.252A41.079,41.079,0,0,0,98.729,41.5a1.75,1.75,0,0,1,2.936-1.906,44.62,44.62,0,0,1,5.353,11.592,1.752,1.752,0,0,1-1.679,2.249ZM35.676,33.23a1.75,1.75,0,0,1-1.151-3.069,44.879,44.879,0,0,1,10.717-6.938A1.75,1.75,0,0,1,46.706,26.4a41.32,41.32,0,0,0-9.881,6.4A1.741,1.741,0,0,1,35.676,33.23Zm56.45-.17a1.746,1.746,0,0,1-1.141-.424,41.379,41.379,0,0,0-9.92-6.339,1.75,1.75,0,1,1,1.446-3.188,44.932,44.932,0,0,1,10.758,6.874,1.751,1.751,0,0,1-1.143,3.077ZM57.733,23.077a1.75,1.75,0,0,1-.25-3.481,45.541,45.541,0,0,1,12.762-.039,1.75,1.75,0,0,1-.482,3.466,42,42,0,0,0-11.776.036A1.819,1.819,0,0,1,57.733,23.077Z" fill="#bae9f9"/></g></svg>
